<svg xmlns="http://www.w3.org/2000/svg" width="375" viewBox="0 0 375 375" height="375" version="1.0"><defs><clipPath id="a"><path d="M 143 70.621094 L 226 70.621094 L 226 156 L 143 156 Z M 143 70.621094"/></clipPath><clipPath id="b"><path d="M 102.148438 71 L 257 71 L 257 208 L 102.148438 208 Z M 102.148438 71"/></clipPath><clipPath id="c"><path d="M 119 90 L 289.648438 90 L 289.648438 228.121094 L 119 228.121094 Z M 119 90"/></clipPath></defs><g clip-path="url(#a)"><path fill="#8CBBBF" d="M 225.03125 155.507812 C 199.183594 158.574219 171.726562 147.074219 156.523438 125.839844 C 147.242188 112.84375 142.398438 96.28125 145.324219 80.597656 C 145.695312 78.585938 146.152344 76.605469 146.703125 74.675781 C 147.324219 72.5 145.324219 70.636719 143.324219 71.074219 C 143.4375 71.058594 147.386719 70.375 150.492188 70.71875 C 152.671875 70.960938 156.847656 71.707031 158.476562 73.28125 C 160.183594 74.949219 158.589844 77.757812 158.132812 80.238281 C 155.207031 95.941406 160.050781 112.488281 169.335938 125.484375 C 170.976562 127.785156 172.78125 129.976562 174.699219 132.035156 C 184.324219 142.402344 197.085938 149.71875 210.773438 153.238281 C 215.425781 154.472656 220.21875 155.21875 225.03125 155.507812 Z M 143.308594 71.074219 Z M 143.308594 71.074219"/></g><g clip-path="url(#b)"><path fill="#B6D6DB" d="M 256.734375 149.28125 C 252.589844 163.539062 244.28125 176.582031 233.324219 186.65625 C 231.535156 185.765625 229.632812 185.050781 227.683594 184.5625 C 217.179688 181.933594 205.085938 185.34375 200.140625 195.675781 C 199.425781 197.152344 198.90625 198.773438 198.550781 200.429688 C 198.191406 202.066406 198.011719 203.738281 198.046875 205.390625 C 188 207.632812 177.5625 207.726562 167.433594 205.929688 C 167.433594 204.695312 167.351562 203.460938 167.140625 202.246094 C 166.765625 199.957031 166.019531 197.71875 164.878906 195.691406 C 159.628906 186.347656 147.777344 182.164062 137.519531 184.09375 C 134.25 184.710938 131.148438 185.941406 128.464844 187.839844 C 123.734375 183.847656 119.457031 179.292969 115.847656 174.246094 C 105.71875 160.066406 100.421875 141.980469 103.605469 124.832031 C 106.613281 108.757812 114.875 94.628906 126.238281 83.679688 C 131.128906 78.972656 136.59375 74.835938 142.445312 71.414062 C 142.722656 71.253906 143 71.136719 143.289062 71.074219 C 145.289062 70.636719 147.273438 72.5 146.671875 74.675781 C 146.121094 76.621094 145.664062 78.585938 145.289062 80.597656 C 142.363281 96.300781 147.207031 112.84375 156.492188 125.839844 C 171.691406 147.074219 199.152344 158.574219 225 155.507812 C 228.527344 155.085938 232.023438 154.40625 235.46875 153.433594 C 241.222656 151.792969 246.71875 149.378906 251.824219 146.328125 C 252.035156 146.214844 252.246094 146.101562 252.441406 145.972656 C 254.066406 144.980469 255.90625 145.808594 256.554688 147.285156 C 256.847656 147.886719 256.945312 148.566406 256.734375 149.28125 Z M 256.734375 149.28125"/></g><path fill="#B16A4C" d="M 220.96875 207.792969 C 221.015625 207.792969 221.050781 207.824219 221.097656 207.824219 C 221.78125 207.890625 222.480469 207.535156 222.871094 206.980469 C 223.015625 206.769531 223.082031 206.527344 223.113281 206.269531 C 223.128906 206.1875 223.128906 206.121094 223.128906 206.042969 C 223.128906 205.992188 223.128906 205.960938 223.128906 205.910156 C 223.128906 205.8125 223.144531 205.71875 223.113281 205.621094 C 223.03125 205.230469 222.804688 204.90625 222.496094 204.664062 C 222.058594 204.257812 221.488281 204.03125 220.871094 204.191406 C 220.609375 204.257812 220.382812 204.402344 220.171875 204.566406 C 220.121094 204.597656 220.058594 204.628906 220.007812 204.664062 C 219.699219 204.953125 219.535156 205.375 219.472656 205.796875 C 219.457031 205.863281 219.457031 205.910156 219.457031 205.976562 C 219.457031 206.023438 219.457031 206.074219 219.457031 206.121094 C 219.457031 206.511719 219.535156 206.886719 219.78125 207.191406 C 220.105469 207.566406 220.527344 207.761719 220.96875 207.792969 Z M 221.503906 205.621094 Z M 221.503906 205.621094"/><g clip-path="url(#c)"><path fill="#C18B4F" d="M 287.394531 95.84375 C 286.710938 97.09375 286.011719 98.34375 285.296875 99.558594 C 283.589844 102.480469 281.816406 105.367188 280.03125 108.253906 C 276.226562 114.355469 272.324219 120.390625 268.472656 126.457031 C 266.667969 129.3125 264.863281 132.167969 263.1875 135.085938 C 260.910156 139.109375 258.71875 143.179688 256.601562 147.285156 C 255.953125 145.808594 254.101562 144.980469 252.492188 145.972656 C 252.296875 146.101562 252.066406 146.199219 251.871094 146.328125 C 262.667969 128.582031 282.226562 95.015625 283.523438 93.460938 C 284.550781 92.226562 285.6875 90.183594 287.574219 90.507812 C 287.816406 90.554688 288.0625 90.636719 288.289062 90.765625 C 288.664062 90.996094 288.957031 91.320312 289.085938 91.722656 C 289.410156 92.890625 287.949219 94.824219 287.394531 95.84375 Z M 243.011719 195.707031 C 247.222656 203.21875 246.101562 213.277344 240.589844 219.894531 C 235.078125 226.53125 225.617188 229.480469 217.210938 227.519531 C 208.808594 225.554688 201.75 218.921875 198.9375 210.777344 C 198.355469 209.074219 198.078125 207.257812 198.027344 205.390625 C 197.996094 203.738281 198.175781 202.050781 198.53125 200.429688 C 198.90625 198.773438 199.425781 197.152344 200.140625 195.675781 C 205.066406 185.34375 217.179688 181.933594 227.683594 184.5625 C 229.632812 185.050781 231.535156 185.765625 233.324219 186.65625 C 237.324219 188.683594 240.769531 191.71875 243.011719 195.707031 Z M 240.816406 196.761719 C 238.6875 192.949219 235.324219 190.109375 231.453125 188.3125 C 229.519531 187.417969 227.46875 186.769531 225.355469 186.394531 C 216.398438 184.789062 206.578125 187.984375 202.433594 196.714844 C 202.027344 197.589844 201.671875 198.515625 201.394531 199.457031 C 200.875 201.175781 200.546875 202.992188 200.515625 204.808594 C 200.46875 206.691406 200.695312 208.570312 201.296875 210.292969 C 203.816406 217.609375 210.140625 223.5625 217.699219 225.3125 C 225.257812 227.066406 233.730469 224.421875 238.671875 218.46875 C 243.597656 212.515625 244.605469 203.496094 240.816406 196.761719 Z M 167.15625 202.261719 C 167.351562 203.476562 167.449219 204.710938 167.449219 205.945312 C 167.417969 210.972656 165.710938 216.019531 162.492188 219.894531 C 156.980469 226.53125 147.519531 229.480469 139.113281 227.519531 C 130.707031 225.554688 123.652344 218.921875 120.839844 210.777344 C 119.199219 206.007812 119.847656 200.070312 122.027344 195.53125 C 123.570312 192.300781 125.8125 189.753906 128.496094 187.871094 C 131.179688 185.976562 134.285156 184.742188 137.550781 184.125 C 147.808594 182.195312 159.660156 186.363281 164.914062 195.722656 C 166.035156 197.734375 166.765625 199.972656 167.15625 202.261719 Z M 164.976562 205.472656 C 164.945312 204.011719 164.765625 202.570312 164.425781 201.175781 C 164.050781 199.632812 163.480469 198.15625 162.703125 196.761719 C 158.246094 188.8125 148.492188 185.015625 139.683594 186.105469 C 136.347656 186.511719 133.164062 187.613281 130.429688 189.460938 C 127.894531 191.183594 125.765625 193.519531 124.320312 196.550781 C 122.367188 200.640625 121.703125 206.007812 123.164062 210.292969 C 125.683594 217.609375 132.007812 223.5625 139.550781 225.3125 C 147.09375 227.066406 155.582031 224.421875 160.523438 218.46875 C 163.53125 214.867188 165.058594 210.128906 164.976562 205.472656 Z M 164.976562 205.472656"/></g><path fill="#D7B48D" d="M 240.816406 196.761719 C 238.6875 192.949219 235.324219 190.109375 231.453125 188.3125 C 229.519531 187.417969 227.46875 186.769531 225.355469 186.394531 C 216.398438 184.789062 206.578125 187.984375 202.433594 196.714844 C 202.027344 197.589844 201.671875 198.515625 201.394531 199.457031 C 200.875 201.175781 200.546875 202.992188 200.515625 204.808594 C 200.46875 206.691406 200.695312 208.570312 201.296875 210.292969 C 203.816406 217.609375 210.140625 223.5625 217.699219 225.3125 C 225.257812 227.066406 233.730469 224.421875 238.671875 218.46875 C 243.597656 212.515625 244.605469 203.496094 240.816406 196.761719 Z M 223.113281 206.269531 C 223.082031 206.527344 223.015625 206.769531 222.871094 206.980469 C 222.480469 207.535156 221.796875 207.890625 221.097656 207.824219 C 221.050781 207.824219 221.015625 207.792969 220.96875 207.792969 C 220.527344 207.746094 220.105469 207.566406 219.8125 207.175781 C 219.570312 206.867188 219.472656 206.480469 219.488281 206.105469 C 219.488281 206.058594 219.488281 206.007812 219.488281 205.960938 C 219.488281 205.894531 219.503906 205.847656 219.503906 205.78125 C 219.554688 205.359375 219.714844 204.9375 220.042969 204.644531 C 220.089844 204.597656 220.136719 204.582031 220.203125 204.550781 C 220.398438 204.371094 220.625 204.242188 220.902344 204.175781 C 221.503906 204.03125 222.089844 204.242188 222.527344 204.644531 C 222.820312 204.890625 223.066406 205.230469 223.144531 205.601562 C 223.164062 205.699219 223.144531 205.796875 223.164062 205.894531 C 223.164062 205.945312 223.164062 205.976562 223.164062 206.023438 C 223.128906 206.121094 223.128906 206.203125 223.113281 206.269531 Z M 162.703125 196.761719 C 158.246094 188.8125 148.492188 185.015625 139.683594 186.105469 C 136.347656 186.511719 133.164062 187.613281 130.429688 189.460938 C 127.894531 191.183594 125.765625 193.519531 124.320312 196.550781 C 122.367188 200.640625 121.703125 206.007812 123.164062 210.292969 C 125.683594 217.609375 132.007812 223.5625 139.550781 225.3125 C 147.09375 227.066406 155.582031 224.421875 160.523438 218.46875 C 163.515625 214.867188 165.058594 210.128906 164.976562 205.472656 C 164.945312 204.011719 164.765625 202.570312 164.425781 201.175781 C 164.035156 199.632812 163.480469 198.140625 162.703125 196.761719 Z M 144.980469 206.269531 C 144.949219 206.527344 144.882812 206.769531 144.738281 206.980469 C 144.347656 207.535156 143.664062 207.890625 142.964844 207.824219 C 142.917969 207.824219 142.882812 207.792969 142.835938 207.792969 C 142.398438 207.746094 141.972656 207.566406 141.679688 207.175781 C 141.4375 206.867188 141.339844 206.480469 141.355469 206.105469 C 141.355469 206.058594 141.355469 206.007812 141.355469 205.960938 C 141.355469 205.894531 141.371094 205.847656 141.371094 205.78125 C 141.421875 205.359375 141.582031 204.9375 141.910156 204.644531 C 141.957031 204.597656 142.007812 204.582031 142.070312 204.550781 C 142.265625 204.371094 142.496094 204.242188 142.769531 204.175781 C 143.371094 204.03125 143.957031 204.242188 144.394531 204.644531 C 144.6875 204.890625 144.933594 205.230469 145.015625 205.601562 C 145.03125 205.699219 145.015625 205.796875 145.03125 205.894531 C 145.03125 205.945312 145.03125 205.976562 145.03125 206.023438 C 144.996094 206.121094 144.996094 206.203125 144.980469 206.269531 Z M 144.980469 206.269531"/><path fill="#B16A4C" d="M 142.851562 207.792969 C 142.902344 207.792969 142.933594 207.824219 142.980469 207.824219 C 143.664062 207.890625 144.363281 207.535156 144.753906 206.980469 C 144.898438 206.769531 144.964844 206.527344 144.996094 206.269531 C 145.015625 206.1875 145.015625 206.121094 145.015625 206.042969 C 145.015625 205.992188 145.015625 205.960938 145.015625 205.910156 C 145.015625 205.8125 145.03125 205.71875 144.996094 205.621094 C 144.917969 205.230469 144.6875 204.90625 144.378906 204.664062 C 143.941406 204.257812 143.371094 204.03125 142.753906 204.191406 C 142.496094 204.257812 142.265625 204.402344 142.054688 204.566406 C 142.007812 204.597656 141.941406 204.628906 141.894531 204.664062 C 141.582031 204.953125 141.40625 205.375 141.355469 205.796875 C 141.339844 205.863281 141.339844 205.910156 141.339844 205.976562 C 141.339844 206.023438 141.339844 206.074219 141.339844 206.121094 C 141.339844 206.511719 141.421875 206.886719 141.664062 207.191406 C 141.972656 207.566406 142.398438 207.761719 142.851562 207.792969 Z M 143.371094 205.621094 Z M 143.371094 205.621094"/><g fill="#B16A4C"><g><g><path d="M 12.734375 -9.453125 L 12.734375 -30.953125 L 13.671875 -30.953125 C 15.222656 -30.953125 16.125 -30.84375 16.375 -30.625 C 16.632812 -30.414062 16.765625 -29.65625 16.765625 -28.34375 L 16.765625 0 L 15.484375 0 C 14.046875 0 13.15625 -0.101562 12.8125 -0.3125 C 12.46875 -0.53125 12.097656 -1.226562 11.703125 -2.40625 L 6.15625 -20.984375 L 5.9375 -20.984375 L 5.9375 -2.625 C 5.9375 -1.300781 5.804688 -0.53125 5.546875 -0.3125 C 5.285156 -0.101562 4.382812 0 2.84375 0 L 1.9375 0 L 1.9375 -30.953125 L 2.875 -30.953125 C 4.28125 -30.953125 5.140625 -30.851562 5.453125 -30.65625 C 5.773438 -30.457031 6.164062 -29.753906 6.625 -28.546875 L 12.515625 -9.453125 Z M 12.734375 -9.453125" transform="translate(104.477 274.496)"/></g></g></g><g fill="#B16A4C"><g><g><path d="M 17.15625 0 C 15.695312 0 14.816406 -0.113281 14.515625 -0.34375 C 14.210938 -0.570312 13.929688 -1.332031 13.671875 -2.625 L 12.21875 -9.890625 L 6.796875 -9.890625 L 5.03125 0 L 4.046875 0 C 2.671875 0 1.796875 -0.078125 1.421875 -0.234375 C 1.046875 -0.390625 0.859375 -0.757812 0.859375 -1.34375 C 0.859375 -1.9375 3.035156 -11.804688 7.390625 -30.953125 L 11.53125 -30.953125 L 18.578125 0 Z M 9.25 -23.140625 L 7.65625 -14.75 L 7.3125 -14.015625 L 11.734375 -14.015625 C 11.710938 -14.046875 11.644531 -14.179688 11.53125 -14.421875 C 11.414062 -14.671875 11.359375 -14.804688 11.359375 -14.828125 L 9.671875 -23.140625 Z M 9.25 -23.140625" transform="translate(124.514 274.496)"/></g></g></g><g fill="#B16A4C"><g><g><path d="M 14.75 -27.3125 L 9.5 -27.3125 L 9.890625 -26.234375 L 9.890625 -2.625 C 9.890625 -1.300781 9.753906 -0.53125 9.484375 -0.3125 C 9.210938 -0.101562 8.300781 0 6.75 0 L 5.71875 0 L 5.71875 -26.234375 L 6.015625 -27.3125 L 0.859375 -27.3125 L 0.859375 -30.953125 L 14.75 -30.953125 Z M 14.75 -27.3125" transform="translate(145.238 274.496)"/></g></g></g><g fill="#B16A4C"><g><g><path d="M 17.15625 0 C 15.695312 0 14.816406 -0.113281 14.515625 -0.34375 C 14.210938 -0.570312 13.929688 -1.332031 13.671875 -2.625 L 12.21875 -9.890625 L 6.796875 -9.890625 L 5.03125 0 L 4.046875 0 C 2.671875 0 1.796875 -0.078125 1.421875 -0.234375 C 1.046875 -0.390625 0.859375 -0.757812 0.859375 -1.34375 C 0.859375 -1.9375 3.035156 -11.804688 7.390625 -30.953125 L 11.53125 -30.953125 L 18.578125 0 Z M 9.25 -23.140625 L 7.65625 -14.75 L 7.3125 -14.015625 L 11.734375 -14.015625 C 11.710938 -14.046875 11.644531 -14.179688 11.53125 -14.421875 C 11.414062 -14.671875 11.359375 -14.804688 11.359375 -14.828125 L 9.671875 -23.140625 Z M 9.25 -23.140625" transform="translate(162.135 274.496)"/></g></g></g><g fill="#B16A4C"><g><g><path d="M 11.953125 -3.828125 C 13.503906 -3.828125 14.414062 -3.710938 14.6875 -3.484375 C 14.957031 -3.253906 15.09375 -2.476562 15.09375 -1.15625 L 15.09375 0 L 2.578125 0 L 2.578125 -30.953125 L 3.65625 -30.953125 C 5.207031 -30.953125 6.117188 -30.84375 6.390625 -30.625 C 6.660156 -30.414062 6.796875 -29.65625 6.796875 -28.34375 L 6.796875 -4.90625 L 6.40625 -3.828125 Z M 11.953125 -3.828125" transform="translate(182.86 274.496)"/></g></g></g><g fill="#B16A4C"><g><g><path d="M 11.953125 -3.828125 C 13.503906 -3.828125 14.414062 -3.710938 14.6875 -3.484375 C 14.957031 -3.253906 15.09375 -2.476562 15.09375 -1.15625 L 15.09375 0 L 2.578125 0 L 2.578125 -30.953125 L 3.65625 -30.953125 C 5.207031 -30.953125 6.117188 -30.84375 6.390625 -30.625 C 6.660156 -30.414062 6.796875 -29.65625 6.796875 -28.34375 L 6.796875 -4.90625 L 6.40625 -3.828125 Z M 11.953125 -3.828125" transform="translate(200.101 274.496)"/></g></g></g><g fill="#B16A4C"><g><g><path d="M 2.578125 -2.625 L 2.578125 -30.953125 L 3.484375 -30.953125 C 5.054688 -30.953125 5.976562 -30.84375 6.25 -30.625 C 6.53125 -30.414062 6.671875 -29.65625 6.671875 -28.34375 L 6.671875 0 L 5.671875 0 C 4.128906 0 3.226562 -0.101562 2.96875 -0.3125 C 2.707031 -0.53125 2.578125 -1.300781 2.578125 -2.625 Z M 2.578125 -2.625" transform="translate(217.343 274.496)"/></g></g></g><g fill="#B16A4C"><g><g><path d="M 1.71875 -4.25 C 4.582031 -3.96875 6.671875 -3.828125 7.984375 -3.828125 C 9.304688 -3.828125 10.21875 -3.925781 10.71875 -4.125 C 11.226562 -4.320312 11.609375 -4.554688 11.859375 -4.828125 C 12.117188 -5.109375 12.304688 -5.519531 12.421875 -6.0625 C 12.566406 -6.75 12.640625 -7.59375 12.640625 -8.59375 C 12.640625 -9.601562 12.394531 -10.476562 11.90625 -11.21875 C 11.425781 -11.96875 10.976562 -12.523438 10.5625 -12.890625 C 10.144531 -13.265625 9.390625 -13.925781 8.296875 -14.875 C 7.210938 -15.820312 6.445312 -16.503906 6 -16.921875 C 5.550781 -17.335938 4.925781 -17.988281 4.125 -18.875 C 2.664062 -20.476562 1.9375 -22.15625 1.9375 -23.90625 C 1.9375 -26.945312 2.25 -28.8125 2.875 -29.5 C 3.851562 -30.5 4.898438 -31.078125 6.015625 -31.234375 C 7.140625 -31.390625 8.332031 -31.46875 9.59375 -31.46875 L 15.4375 -30.234375 C 15.207031 -28.597656 14.878906 -27.632812 14.453125 -27.34375 C 14.242188 -27.175781 13.890625 -27.09375 13.390625 -27.09375 C 12.890625 -27.09375 12.238281 -27.175781 11.4375 -27.34375 L 9.796875 -27.65625 C 8.109375 -27.65625 7.078125 -27.304688 6.703125 -26.609375 C 6.472656 -26.242188 6.335938 -25.898438 6.296875 -25.578125 C 6.253906 -25.265625 6.234375 -24.796875 6.234375 -24.171875 C 6.234375 -22.992188 7.679688 -21.1875 10.578125 -18.75 C 11.953125 -17.65625 13.023438 -16.734375 13.796875 -15.984375 C 14.578125 -15.242188 15.3125 -14.34375 16 -13.28125 C 16.6875 -12.226562 17.03125 -11.226562 17.03125 -10.28125 C 17.03125 -9.332031 17.019531 -8.609375 17 -8.109375 C 16.988281 -7.609375 16.929688 -6.921875 16.828125 -6.046875 C 16.734375 -5.171875 16.582031 -4.488281 16.375 -4 C 16.175781 -3.507812 15.875 -2.945312 15.46875 -2.3125 C 15.070312 -1.6875 14.585938 -1.21875 14.015625 -0.90625 C 12.554688 -0.101562 10.804688 0.296875 8.765625 0.296875 C 7.617188 0.296875 6.285156 0.160156 4.765625 -0.109375 C 3.253906 -0.378906 2.238281 -0.546875 1.71875 -0.609375 Z M 1.71875 -4.25" transform="translate(227.877 274.496)"/></g></g></g><g fill="#B16A4C"><g><g><path d="M 14.75 -27.3125 L 9.5 -27.3125 L 9.890625 -26.234375 L 9.890625 -2.625 C 9.890625 -1.300781 9.753906 -0.53125 9.484375 -0.3125 C 9.210938 -0.101562 8.300781 0 6.75 0 L 5.71875 0 L 5.71875 -26.234375 L 6.015625 -27.3125 L 0.859375 -27.3125 L 0.859375 -30.953125 L 14.75 -30.953125 Z M 14.75 -27.3125" transform="translate(247.913 274.496)"/></g></g></g></svg>